<svg width="194" height="223" viewBox="0 0 194 223" fill="none" xmlns="http://www.w3.org/2000/svg">
<mask id="mask0_854_57" style="mask-type:luminance" maskUnits="userSpaceOnUse" x="0" y="0" width="193" height="112">
<path d="M192.992 55.7122L96.4961 0L-0.000173064 55.7122L96.4961 111.424L192.992 55.7122Z" fill="white"/>
</mask>
<g mask="url(#mask0_854_57)">
<path d="M192.988 55.7161L96.4922 0.00390625L-0.00407931 55.7161L96.4922 111.428L192.988 55.7161Z" fill="#84BF6F"/>
<mask id="mask1_854_57" style="mask-type:luminance" maskUnits="userSpaceOnUse" x="-43" y="-93" width="273" height="204">
<path d="M229.089 -88.7476L-35.3203 -92.1133L-42.9268 107.075L221.483 110.441L229.089 -88.7476Z" fill="white"/>
</mask>
<g mask="url(#mask1_854_57)">
<path d="M120.363 45.9281C122.056 44.0772 122.935 42.2786 123.002 40.532C123.068 38.7854 122.958 37.4265 122.671 36.4554C122.384 35.4845 121.876 34.62 121.149 33.8618C119.59 32.2193 117.19 31.3773 113.948 31.336C109.951 31.2852 106.299 32.0812 102.993 33.7243C99.4694 35.4268 97.6549 37.6506 97.55 40.3951C97.4833 42.1419 98.4777 43.6992 100.533 45.0672C102.589 46.435 105.214 47.7636 108.408 49.0525C111.601 50.3412 115.011 51.6329 118.637 52.9271C122.263 54.2215 125.668 55.6379 128.852 57.1763C136.176 60.702 139.75 64.7729 139.574 69.389C139.454 72.5081 137.913 75.3748 134.948 77.9895C131.984 80.6043 128.088 82.8482 123.26 84.7215C112.726 88.8312 100.598 90.7988 86.876 90.6241C75.7474 90.4824 67.3599 89.3303 61.7134 87.1677C56.0668 85.0051 53.3043 82.3332 53.4257 79.1517C53.6425 73.4751 57.6139 69.9685 65.3398 68.6314C67.5174 68.2221 70.2538 68.0385 73.5492 68.0806C76.8445 68.1225 80.3674 68.5731 84.118 69.4321C82.2917 71.9677 81.3345 74.3895 81.2464 76.6975C81.0557 81.6878 84.0397 84.2223 90.1984 84.3006C94.1958 84.3514 97.8747 83.5558 101.234 81.9135C104.594 80.2712 106.31 78.4988 106.383 76.5962C106.455 74.6935 105.465 73.0427 103.41 71.6436C101.356 70.2444 98.7825 68.9791 95.6909 67.8476C92.5993 66.7161 89.2641 65.597 85.6851 64.4904C82.1061 63.3839 78.7784 62.0621 75.7024 60.5251C68.4863 57.0008 64.9831 52.4938 65.1928 47.0045C65.3286 43.4487 66.9621 40.3024 70.0934 37.565C73.2247 34.8276 77.2569 32.5541 82.1905 30.7445C92.0597 27.0632 102.964 25.2985 114.903 25.4504C126.842 25.6025 135.662 26.7444 141.364 28.8765C147.066 31.0086 149.85 33.8215 149.716 37.3147C149.6 40.3713 147.452 42.8404 143.272 44.7218C139.645 46.2984 135.67 47.059 131.348 47.0039C127.026 46.949 123.365 46.5904 120.363 45.9281Z" fill="#373737"/>
</g>
</g>
<mask id="mask2_854_57" style="mask-type:luminance" maskUnits="userSpaceOnUse" x="96" y="55" width="98" height="168">
<path d="M193.004 167.127L193.004 55.7031L96.5076 111.415L96.5076 222.84L193.004 167.127Z" fill="white"/>
</mask>
<g mask="url(#mask2_854_57)">
<path d="M193.004 167.127L193.004 55.7031L96.5076 111.415L96.5076 222.84L193.004 167.127Z" fill="#8CBF7A"/>
<mask id="mask3_854_57" style="mask-type:luminance" maskUnits="userSpaceOnUse" x="123" y="59" width="63" height="176">
<path d="M185.765 59.8738L123.078 96.0664L123.078 234.534L185.765 198.341L185.765 59.8738Z" fill="white"/>
</mask>
<g mask="url(#mask3_854_57)">
<path d="M126.717 131.163C124.335 130.299 123.145 127.477 123.145 122.697C123.145 117.917 124.423 113.541 126.979 109.567C129.536 105.594 133.02 102.333 137.432 99.7861C140.234 98.1687 144.961 96.042 151.615 93.4063L158.759 90.5735C161.14 89.5432 163.574 88.3102 166.06 86.8747C168.547 85.4394 170.63 83.5906 172.311 81.3281C174.832 82.6284 176.093 85.2593 176.093 89.2208C176.093 93.1822 174.657 97.4129 171.786 101.913C168.844 106.625 165.482 110.073 161.7 112.257C159.879 113.308 157.498 114.382 154.556 115.477C151.125 130.721 149.409 142.95 149.409 152.165C149.409 161.38 151.3 167.307 155.082 169.946C153.331 174.833 151.16 178.778 148.568 181.781C145.977 184.784 142.738 187.408 138.85 189.652C134.963 191.896 131.812 192.403 129.395 191.171C126.979 189.939 125.771 186.611 125.771 181.185C125.771 174.898 127.172 165.779 129.973 153.827C132.775 141.961 136.277 130.897 140.479 120.634C138.448 121.548 136.382 122.612 134.281 123.825C129.938 126.332 127.417 128.778 126.717 131.163Z" fill="#373737"/>
</g>
</g>
<mask id="mask4_854_57" style="mask-type:luminance" maskUnits="userSpaceOnUse" x="0" y="55" width="97" height="168">
<path d="M96.4963 111.427L0 55.7148L-2.45473e-06 167.139L96.4963 222.851L96.4963 111.427Z" fill="white"/>
</mask>
<g mask="url(#mask4_854_57)">
<path d="M96.4963 111.427L0 55.7148L-2.45473e-06 167.139L96.4963 222.851L96.4963 111.427Z" fill="#83B673"/>
<path d="M21.9202 101.165C19.3171 97.364 18.0156 93.011 18.0156 88.1057C18.0156 83.2003 19.4128 80.273 22.2073 79.3233C25.0018 78.3735 28.8106 79.2909 33.6339 82.0757C36.6963 83.8437 41.8641 87.4461 49.1374 92.8827L56.9464 98.717C59.5495 100.573 62.21 102.286 64.9277 103.855C67.6456 105.424 69.9233 106.077 71.7608 105.812C74.5169 110.231 75.8951 114.474 75.8951 118.539C75.8951 122.605 74.3256 125.19 71.1866 126.294C67.9711 127.531 64.2962 126.956 60.1619 124.569C58.1713 123.42 55.5683 121.608 52.3528 119.133C48.6014 130.578 46.7257 141.029 46.7257 150.486C46.7257 159.943 48.7927 168.34 52.927 175.676C51.0131 178.548 48.6396 179.94 45.8068 179.851C42.9743 179.762 39.4333 178.491 35.1841 176.038C30.9352 173.585 27.4899 170.248 24.8487 166.027C22.2073 161.807 20.8866 156.912 20.8866 151.344C20.8866 144.892 22.4179 137.247 25.4802 128.409C28.5426 119.66 32.3707 112.59 36.9643 107.199C34.7439 105.652 32.4855 104.215 30.1887 102.889C25.442 100.149 22.6857 99.574 21.9202 101.165Z" fill="#373737"/>
</g>
</svg>
